PathFileType	4	(X/Y/Z)	s02c0403.trc
DataRate	CameraRate	NumFrames	NumMarkers	Units	OrigDataRate	OrigDataStartFrame	OrigNumFrames
200	200	5	51	mm	200	1750	2000
Frame#	Time	racr			lacr			c7			jug			rlel			rdr			llel			ldr			s2			lic			ric			lasi			rasi			rpsi			lpsi			rgt			lgt			rth1			rth2			rth3			rth4			rlfc			rmfc			rsh1			rsh2			rsh3			rsh4			rlmal			rmmal			rcal			rtoe			rmt5			rmt1			lth1			lth2			lth4			lth3			llfc			lmfc			lsh1			lsh2			lsh3			lsh4			llmal			lmmal			lcal			ltoe			lmt5			SBIKE			LBIKE			RBIKE			
		X1	Y1	Z1	X2	Y2	Z2	X3	Y3	Z3	X4	Y4	Z4	X5	Y5	Z5	X6	Y6	Z6	X7	Y7	Z7	X8	Y8	Z8	X9	Y9	Z9	X10	Y10	Z10	X11	Y11	Z11	X12	Y12	Z12	X13	Y13	Z13	X14	Y14	Z14	X15	Y15	Z15	X16	Y16	Z16	X17	Y17	Z17	X18	Y18	Z18	X19	Y19	Z19	X20	Y20	Z20	X21	Y21	Z21	X22	Y22	Z22	X23	Y23	Z23	X24	Y24	Z24	X25	Y25	Z25	X26	Y26	Z26	X27	Y27	Z27	X28	Y28	Z28	X29	Y29	Z29	X30	Y30	Z30	X31	Y31	Z31	X32	Y32	Z32	X33	Y33	Z33	X34	Y34	Z34	X35	Y35	Z35	X36	Y36	Z36	X37	Y37	Z37	X38	Y38	Z38	X39	Y39	Z39	X40	Y40	Z40	X41	Y41	Z41	X42	Y42	Z42	X43	Y43	Z43	X44	Y44	Z44	X45	Y45	Z45	X46	Y46	Z46	X47	Y47	Z47	X48	Y48	Z48	X49	Y49	Z49	X50	Y50	Z50	X51	Y51	Z51	
1750	8.7500	805.294723	1242.238830	-140.581414	784.869827	1173.070377	-495.981749	804.446496	1258.046554	-332.565394	0.000000	0.000000	-0.000000	639.424721	1041.164945	-30.669178	715.437602	881.437956	-120.020546	583.972862	1030.884209	-646.880177	688.712804	883.048843	-538.008456	250.331083	1190.812395	-307.570266	377.657251	1141.239824	-446.874252	365.524126	1170.922303	-160.113752	410.381773	1098.413843	-415.049591	407.661568	1134.308452	-189.919783	271.221996	1219.768243	-270.981441	284.648059	1215.900465	-357.218679	336.233262	1087.943745	-112.037947	305.621735	1061.845824	-471.377415	413.902471	1031.452118	-120.168851	489.956442	985.263382	-126.141878	536.900782	917.077473	-102.650521	509.063999	1002.611562	-153.453249	590.586049	784.481960	-132.906264	570.378422	770.941913	-242.147706	507.743512	708.677146	-117.912242	439.455197	652.737104	-136.424471	356.870756	632.605495	-130.611474	448.910861	642.472147	-171.694675	242.504893	586.319636	-135.412913	269.242119	595.725159	-216.431016	171.393576	626.801633	-182.951474	283.278871	362.765133	-196.635412	225.178378	452.173063	-132.802151	245.543339	438.607311	-240.882222	373.700082	938.876919	-495.028180	416.624944	863.137624	-493.592016	450.020631	872.129076	-483.907848	414.923244	774.460981	-492.835253	442.415371	680.250048	-475.218519	444.093440	648.066123	-379.082017	412.088242	580.911981	-500.802921	413.215933	495.434136	-488.370587	368.368205	416.715013	-490.525159	433.510912	492.757389	-453.207141	329.137827	318.344608	-478.465693	345.054314	312.029627	-401.878175	255.990483	292.081643	-439.025229	517.703022	167.473603	-445.736277	410.711339	190.087915	-505.173497	-128.641303	869.471778	-314.823797	32.835952	82.216244	-515.203022	32.446480	83.020325	-115.077784	
1751	8.7550	804.438078	1242.954042	-137.729280	786.118557	1174.230543	-493.336586	804.602777	1258.825310	-329.467328	0.000000	0.000000	-0.000000	638.875849	1040.521712	-29.426914	715.346558	881.443389	-119.649168	585.214140	1032.223359	-645.152409	689.160958	882.684373	-537.781699	250.071536	1188.788900	-309.300244	378.897777	1138.672767	-447.696099	364.336103	1170.163152	-160.543872	411.193243	1095.805922	-415.006297	406.874556	1133.872347	-190.195628	270.648866	1217.689400	-272.806662	284.915904	1213.658421	-358.716335	335.419745	1087.888000	-112.315079	305.834619	1058.919484	-471.148332	414.957972	1033.844855	-119.466297	491.681464	989.053729	-126.104429	539.945816	921.720771	-103.045689	510.553660	1007.177509	-153.330895	597.211593	790.627856	-134.485542	577.020066	777.093905	-243.267362	514.733604	714.612440	-119.896167	446.237869	659.069630	-138.332471	363.612661	639.016742	-132.327984	455.484019	648.833509	-173.710606	249.454768	593.547074	-136.539268	275.450390	602.990363	-217.633323	177.172266	633.365039	-183.383338	292.561471	370.637645	-196.990083	233.740659	459.372822	-133.397380	253.356297	445.948221	-241.498984	370.995011	934.675498	-494.917396	411.942484	857.899586	-493.131551	445.658656	866.066468	-482.725295	407.933359	769.236577	-492.231079	433.007036	674.987336	-474.470383	433.158766	642.791513	-378.571190	403.103882	575.978552	-500.448588	405.526615	490.654874	-488.915901	360.707086	411.395023	-490.604690	424.770169	487.790130	-452.416759	322.549148	312.647007	-478.699612	338.231188	306.246427	-402.052302	249.350446	287.473820	-439.203937	509.339394	159.279004	-445.528766	402.857431	183.248371	-505.053473	-128.640980	869.500017	-314.751974	32.820446	82.199098	-515.211721	32.785132	82.552543	-115.084353	
1752	8.7600	803.543976	1243.380892	-134.688002	787.421410	1175.384151	-490.657621	804.730036	1259.396697	-326.321406	0.000000	0.000000	-0.000000	638.286384	1040.080373	-28.052112	715.212873	881.432536	-119.246655	586.576115	1033.590989	-643.449841	689.255277	882.035042	-537.348311	250.182373	1186.791398	-311.239173	380.265701	1135.978375	-448.326851	363.175574	1169.456327	-161.038690	412.071732	1093.160645	-414.621787	405.961055	1133.280125	-190.529575	270.263766	1215.691338	-274.620645	285.262169	1211.619034	-360.330293	334.321587	1087.883734	-112.834283	306.055268	1056.173098	-471.139256	415.458216	1036.133251	-118.076849	492.637492	992.177407	-125.537477	542.780552	926.323496	-103.557758	511.158939	1011.206147	-153.492772	603.867266	797.049355	-136.090905	583.606274	783.319328	-245.091907	521.718391	720.636933	-121.787824	453.058566	665.415590	-140.261883	370.079723	645.180917	-134.000126	462.020449	655.231994	-175.806641	256.825654	600.306922	-137.769520	281.999510	609.790725	-218.917207	183.568521	639.234159	-183.868616	302.255532	377.941049	-197.298554	242.593317	466.172655	-134.092062	262.718370	451.541260	-242.673431	368.129347	931.028257	-494.719875	407.211406	853.249052	-492.733149	441.037023	860.586703	-482.052964	400.972919	764.705638	-491.807004	423.740502	670.370729	-473.842739	422.451298	638.230436	-378.034060	394.090620	571.589678	-500.272749	397.224134	486.208897	-488.818466	352.903998	406.667336	-490.760078	416.042399	483.355576	-451.850394	315.684764	307.565965	-479.024794	330.981379	301.051950	-402.396248	242.577228	283.608741	-439.300226	500.670543	151.283741	-445.345935	394.533704	176.915357	-504.905737	-128.679454	869.471341	-314.810097	32.816327	82.167312	-515.227783	32.863853	82.451493	-115.095446	
1753	8.7650	802.624076	1243.567303	-131.656702	788.745833	1176.525179	-487.890445	804.888523	1259.899716	-323.042736	0.000000	0.000000	-0.000000	637.605029	1039.348151	-26.572154	715.037979	881.410822	-118.873562	588.094981	1034.989328	-641.694305	689.778350	881.698024	-537.175223	250.588661	1184.927445	-313.266739	381.428296	1133.384847	-448.923581	362.029251	1168.918150	-161.465736	412.757531	1090.625128	-414.234903	405.200959	1132.787124	-190.762318	270.077155	1213.881167	-276.372140	285.646089	1209.650563	-361.870749	332.988297	1087.918902	-113.278396	306.133797	1053.718442	-471.132453	415.051950	1037.347483	-117.378968	493.643615	995.995933	-125.918200	545.152384	930.955113	-103.688392	511.298559	1014.749108	-154.518615	609.999877	803.586038	-137.397910	590.602256	789.948398	-244.863959	528.732005	726.670248	-123.564048	460.146075	671.550093	-141.845927	377.045876	651.293810	-135.532773	465.563126	659.271493	-181.746969	264.431494	606.505569	-138.982851	288.860023	616.094203	-220.222972	190.314175	644.429334	-184.479436	312.916426	385.710493	-196.269468	251.763538	472.360362	-134.712899	271.370976	457.749599	-242.399190	365.251448	928.016201	-494.694014	402.472846	849.244162	-492.422148	436.377748	855.802982	-481.462391	394.036644	760.870981	-491.584399	414.441217	666.693701	-473.333504	412.325314	634.398307	-377.563256	384.943172	567.611673	-500.203143	388.668603	482.450002	-488.779437	344.909531	402.634193	-491.035075	407.303018	479.723674	-451.895520	308.680687	303.085502	-479.395401	323.886371	296.452172	-402.658212	235.621168	280.401875	-439.573368	491.532701	143.912891	-445.164079	385.942667	171.139114	-504.816281	-128.714570	869.461628	-314.818596	32.828494	82.153070	-515.234973	32.885355	82.426536	-115.145615	
1754	8.7700	801.655804	1243.675902	-128.557531	790.044049	1177.656524	-485.083410	804.983147	1260.267849	-319.793507	0.000000	0.000000	-0.000000	636.820926	1038.511535	-24.916947	714.843040	881.419647	-118.468235	589.696110	1036.389454	-640.018294	690.430865	881.427348	-536.883791	249.445450	1184.093614	-313.723351	381.654944	1129.940171	-448.771906	360.805837	1168.349026	-162.048889	412.924884	1087.688499	-412.955496	404.327137	1132.281616	-191.135378	270.223785	1212.112326	-278.263753	283.738617	1208.586170	-362.056605	331.433198	1088.120294	-113.756660	306.090289	1051.548596	-471.063827	414.114965	1038.076263	-118.044883	493.755922	1000.235006	-125.339080	546.802058	935.762680	-103.300873	510.760854	1018.400669	-154.702871	615.861619	810.362126	-138.323094	597.544216	796.897029	-244.021980	535.292248	732.741079	-124.971526	467.438189	677.592632	-143.175646	384.072417	656.943231	-136.995056	472.402407	665.416752	-183.596792	272.168200	612.145781	-140.176818	295.943559	621.850945	-221.393004	197.206543	649.136763	-185.158850	322.849644	391.375346	-197.498876	261.260985	478.045364	-135.269381	280.739251	463.377047	-242.528399	362.463502	925.393814	-494.665782	397.795547	845.737648	-492.160084	431.754122	851.564934	-480.929011	387.207686	757.575691	-491.733174	405.355057	663.315684	-472.987630	402.567064	631.313035	-377.081215	375.828859	564.368724	-500.236337	380.015208	479.113639	-488.931406	336.730335	399.039687	-491.427820	398.648536	476.522359	-452.057776	301.647614	299.186754	-479.856574	316.459952	292.407777	-403.136199	228.581657	277.906111	-439.889756	482.138438	136.912779	-444.912198	377.051867	165.900954	-504.708709	-128.723434	869.467507	-314.808741	32.803620	82.159950	-515.226758	32.893665	82.411403	-115.144334	
